HIERARCHY
ROOT Hips
{
	OFFSET -3.958830 18.904000 13.208200
	CHANNELS 6 Xposition Yposition Zposition Zrotation Yrotation Xrotation 
	JOINT LHipJoint
	{
		OFFSET 0.000000 0.000000 0.000000
		CHANNELS 3 Zrotation Yrotation Xrotation
		JOINT LeftUpLeg
		{
			OFFSET 1.800000 -1.400000 0.085000
			CHANNELS 3 Zrotation Yrotation Xrotation
			JOINT LeftLeg
			{
				OFFSET 2.215000 -6.000000 0.000000
				CHANNELS 3 Zrotation Yrotation Xrotation
				JOINT LeftFoot
				{
					OFFSET 2.500000 -6.900000 0.000000
					CHANNELS 3 Zrotation Yrotation Xrotation
					JOINT LeftToeBase
					{
						OFFSET 0.200000 -0.500000 1.950000
						CHANNELS 3 Zrotation Yrotation Xrotation
						End Site
						{
							OFFSET 0.000000 0.000000 0.000000
						}
					}
				}
			}
		}
	}
	JOINT RHipJoint
	{
		OFFSET 0.000000 0.000000 0.000000
		CHANNELS 3 Zrotation Yrotation Xrotation
		JOINT RightUpLeg
		{
			OFFSET -1.800000 -1.400000 0.085000
			CHANNELS 3 Zrotation Yrotation Xrotation
			JOINT RightLeg
			{
				OFFSET -2.215000 -6.000000 0.000000
				CHANNELS 3 Zrotation Yrotation Xrotation
				JOINT RightFoot
				{
					OFFSET -2.500000 -6.900000 0.000000
					CHANNELS 3 Zrotation Yrotation Xrotation
					JOINT RightToeBase
					{
						OFFSET -0.200000 -0.500000 1.950000
						CHANNELS 3 Zrotation Yrotation Xrotation
						End Site
						{
							OFFSET 0.000000 0.000000 0.000000
						}
					}
				}
			}
		}
	}
	JOINT LowerBack
	{
		OFFSET 0.000000 0.000000 0.000000
		CHANNELS 3 Zrotation Yrotation Xrotation
		JOINT Spine
		{
			OFFSET -0.087000 1.940000 -0.288900
			CHANNELS 3 Zrotation Yrotation Xrotation
			JOINT Spine1
			{
				OFFSET 0.000000 1.950000 0.060000
				CHANNELS 3 Zrotation Yrotation Xrotation
				JOINT Neck
				{
					OFFSET 0.000000 0.000000 0.000000
					CHANNELS 3 Zrotation Yrotation Xrotation
					JOINT Neck1
					{
						OFFSET 0.000000 1.600000 0.340000
						CHANNELS 3 Zrotation Yrotation Xrotation
						JOINT Head
						{
							OFFSET 0.000000 1.667000 -0.240000
							CHANNELS 3 Zrotation Yrotation Xrotation
							End Site
							{
								OFFSET 0.000000 0.000000 0.000000
							}
						}
					}
				}
				JOINT LeftShoulder
				{
					OFFSET 0.000000 0.000000 0.000000
					CHANNELS 3 Zrotation Yrotation Xrotation
					JOINT LeftArm
					{
						OFFSET 2.700000 1.550000 -0.730000
						CHANNELS 3 Zrotation Yrotation Xrotation
						JOINT LeftForeArm
						{
							OFFSET 5.450000 0.000000 0.000000
							CHANNELS 3 Zrotation Yrotation Xrotation
							JOINT LeftHand
							{
								OFFSET 3.450000 0.000000 0.000000
								CHANNELS 3 Zrotation Yrotation Xrotation
								JOINT LeftHandIndex1
								{
									OFFSET 0.750000 0.000000 0.000000
									CHANNELS 3 Zrotation Yrotation Xrotation
									End Site
									{
										OFFSET 0.000000 0.000000 0.000000
									}
								}
							}
						}
					}
				}
				JOINT RightShoulder
				{
					OFFSET 0.000000 0.000000 0.000000
					CHANNELS 3 Zrotation Yrotation Xrotation
					JOINT RightArm
					{
						OFFSET -2.700000 1.550000 -0.730000
						CHANNELS 3 Zrotation Yrotation Xrotation
						JOINT RightForeArm
						{
							OFFSET -5.450000 0.000000 0.000000
							CHANNELS 3 Zrotation Yrotation Xrotation
							JOINT RightHand
							{
								OFFSET -3.450000 0.000000 0.000000
								CHANNELS 3 Zrotation Yrotation Xrotation
								JOINT RightHandIndex1
								{
									OFFSET -0.750000 0.000000 0.000000
									CHANNELS 3 Zrotation Yrotation Xrotation
									End Site
									{
										OFFSET 0.000000 0.000000 0.000000
									}
								}
							}
						}
					}
				}
			}
		}
	}
}
MOTION
Frames: 8
Frame Time: 0.016667
0.042250 17.835370 1.288980 -18.569771 6.193387 -4.296868 -15.016565 12.389085 1.421344 12.930616 -1.127727 -21.222257 6.651113 3.652265 20.344270 -0.354650 3.566902 3.396778 0.089480 -0.077140 -0.153200 18.638163 -8.327658 6.520443 -13.917243 14.357060 -48.100171 56.132980 -58.020418 64.195829 -3.768869 -16.260816 -0.346947 -0.142170 0.450220 0.226620 -4.316698 -2.124624 -9.164897 13.984016 -2.554085 23.563086 -5.960247 0.936739 -4.785099 1.818642 -3.704192 -6.976579 -9.522827 -0.226922 39.458712 4.722390 -6.274560 -7.165620 -28.822714 -2.122401 -0.453291 -45.172124 -0.901806 -6.424705 -35.656330 -26.848182 5.480666 -3.660174 3.125950 0.448890 0.076560 -0.001420 0.257580 24.373846 5.828717 4.607165 50.305589 -4.148316 -13.170233 31.646564 35.526551 5.371525 2.250974 -1.415107 -0.125680 0.262480 0.124640 0.092620 
0.035660 17.829960 1.281750 -18.543023 6.240097 -4.395419 -15.016391 12.389247 1.399385 12.650727 -1.143819 -21.233749 7.165081 3.537030 20.647496 -0.358496 3.578591 3.395571 0.084990 -0.086650 -0.162010 18.641092 -8.317236 6.552391 -13.730072 14.522727 -48.617918 56.699370 -58.832564 64.477338 -3.791420 -16.335200 -0.355061 -0.142750 0.458890 0.219210 -4.321000 -2.114965 -9.173149 13.773115 -2.476875 23.693552 -6.026144 1.004665 -4.829501 1.720349 -3.814725 -6.979331 -9.792247 -0.106285 39.645022 5.164730 -6.526120 -6.865360 -28.997426 -2.227060 -0.458014 -44.909116 -0.906783 -6.435847 -35.836712 -27.055091 5.578754 -3.658691 3.129857 0.449160 0.077510 -0.013800 0.257540 24.743988 6.013024 4.644953 50.124873 -4.257092 -13.206883 31.664783 35.408853 5.327409 2.246046 -1.415998 -0.133670 0.266620 0.130990 0.091950 
0.015430 17.820080 1.270220 -18.073712 6.478953 -4.613048 -15.053030 12.414954 1.380285 11.729721 -1.244159 -21.442144 8.388493 3.258370 21.600783 -0.360170 3.628444 3.379393 0.074800 -0.102240 -0.178190 18.610698 -8.267538 6.620829 -13.877110 14.524183 -49.591950 57.627217 -60.059075 64.813660 -3.820909 -16.412695 -0.365663 -0.145630 0.473150 0.216690 -4.224257 -2.201198 -9.205872 12.293902 -2.099461 24.221263 -5.601543 1.137290 -5.035278 1.505424 -3.834493 -6.938854 -9.974869 0.042691 39.989282 5.928950 -6.844250 -6.715180 -29.168647 -2.268737 -0.512379 -44.649682 -1.016081 -6.441623 -35.877155 -27.406428 5.693361 -3.662859 3.131698 0.454680 0.078410 -0.024170 0.255720 25.462882 6.144450 4.611355 49.645233 -4.491305 -13.248466 32.071212 35.252042 5.378193 2.238316 -1.413883 -0.143590 0.273860 0.146470 0.092740 
-0.004640 17.802530 1.259410 -17.669505 6.737668 -4.925347 -15.092330 12.442363 1.377041 10.857983 -1.353617 -21.810859 9.787906 2.949618 22.818446 -0.353114 3.723806 3.347502 0.068510 -0.110610 -0.182360 18.579632 -8.211979 6.675774 -13.976603 14.541826 -50.558706 58.590381 -60.865276 64.770177 -3.839621 -16.427722 -0.362416 -0.145540 0.479890 0.208480 -4.122589 -2.301869 -9.239039 10.898013 -1.808171 24.874407 -5.281434 1.227745 -5.299824 1.384834 -3.921982 -6.899090 -10.285893 0.272246 40.407594 6.325720 -6.909840 -6.816280 -29.423355 -2.259249 -0.601151 -44.441494 -1.079362 -6.482967 -35.749501 -27.720833 5.758182 -3.660127 3.118628 0.465420 0.074060 -0.025490 0.254100 26.068991 6.280935 4.579101 49.251447 -4.635337 -13.269886 32.544766 35.083512 5.452421 2.235612 -1.404049 -0.155910 0.289300 0.154400 0.090480 
-0.021820 17.776640 1.255880 -17.285457 6.897151 -5.201173 -15.122956 12.460954 1.382719 10.180867 -1.450860 -22.029975 10.773726 2.720781 23.784142 -0.331526 3.809986 3.319927 0.069100 -0.107490 -0.186030 18.558350 -8.178233 6.705028 -14.048402 14.622463 -51.350442 59.623793 -60.497315 63.776869 -3.817662 -16.318298 -0.334072 -0.144320 0.485400 0.203910 -4.046893 -2.358500 -9.254651 9.714716 -1.521117 25.306605 -5.116248 1.328858 -5.537887 1.281125 -4.094993 -6.794038 -10.722561 0.555864 40.696925 6.630560 -6.944220 -6.734140 -29.556272 -1.927577 -0.784025 -44.364946 -1.187713 -6.450866 -35.762874 -28.029741 5.900139 -3.656597 3.115761 0.464640 0.072280 -0.025340 0.259330 26.481949 6.139848 4.482716 49.018458 -4.825431 -13.233239 33.221384 34.801061 5.553535 2.239792 -1.405134 -0.157020 0.297080 0.152290 0.095310 
-0.028500 17.739870 1.255770 -17.250790 7.243300 -5.198899 -15.123263 12.418909 1.415429 9.852403 -1.625996 -22.716881 11.417564 2.564123 24.663982 -0.300517 3.887642 3.294627 0.063730 -0.105040 -0.198620 18.571436 -8.167291 6.702894 -13.980886 14.517772 -52.028165 60.681264 -60.240611 62.613516 -3.785105 -16.193603 -0.303221 -0.145270 0.496260 0.201970 -4.067056 -2.320619 -9.259617 9.567336 -1.618471 25.156698 -5.457490 1.213714 -5.652715 1.303693 -4.369010 -6.648513 -11.202022 0.799493 40.558638 6.476290 -6.910640 -6.140540 -29.447493 -1.346334 -1.021147 -44.611401 -1.401520 -6.332429 -35.717175 -28.171238 6.014485 -3.661143 3.121538 0.445620 0.079820 -0.031710 0.268330 26.286050 5.695042 4.322026 49.360702 -4.802207 -13.084814 33.704054 34.311862 5.564336 2.256818 -1.413507 -0.152410 0.296060 0.147230 0.108160 
-0.031660 17.706110 1.255560 -17.071088 7.548528 -5.274198 -15.119491 12.375266 1.456448 9.481532 -1.816576 -23.310994 11.734606 2.503083 25.672611 -0.285563 4.000232 3.255078 0.056860 -0.118870 -0.207320 18.584352 -8.156617 6.699034 -14.084163 14.313645 -52.335396 61.364394 -60.321272 62.009447 -3.766732 -16.113715 -0.282611 -0.153070 0.506480 0.201790 -4.092816 -2.292027 -9.269635 9.413458 -1.785978 25.117376 -5.939945 1.001360 -5.810467 1.314296 -4.784967 -6.615242 -12.026406 1.274228 40.761403 6.594130 -6.938260 -5.813380 -29.213447 -0.809773 -1.168375 -44.904253 -1.358750 -6.379001 -35.513756 -28.650728 6.131821 -3.662100 3.118236 0.449060 0.080990 -0.037990 0.270650 25.987667 5.376548 4.232505 50.013377 -4.716647 -13.016417 33.889428 33.831525 5.516384 2.266284 -1.404065 -0.156980 0.299060 0.153480 0.110040 
-0.034110 17.679110 1.252870 -17.209305 7.695203 -5.536912 -15.104075 12.351677 1.478291 9.692416 -1.881900 -23.674239 11.595251 2.606074 26.412818 -0.276547 4.099819 3.211863 0.050000 -0.128710 -0.216160 18.603633 -8.152769 6.694950 -14.028221 14.297295 -52.637768 61.950627 -60.291694 61.417622 -3.756598 -16.040705 -0.265707 -0.160990 0.504970 0.198860 -4.143008 -2.261070 -9.282648 9.796180 -2.057000 25.366521 -6.516907 0.853120 -6.090907 1.392788 -5.243432 -6.646534 -13.015594 1.796879 41.335407 6.793310 -6.988390 -5.846350 -29.035915 -0.257843 -1.343247 -45.290557 -1.293509 -6.441730 -35.269121 -29.079811 6.218736 -3.654842 3.107757 0.462510 0.071340 -0.033900 0.269180 25.570142 5.102715 4.229312 50.651475 -4.750570 -13.054546 34.417010 33.683553 5.635406 2.275149 -1.390029 -0.160290 0.303120 0.161520 0.109790 
